Coordinates
version=1
nRows=7
nColumns=40
inDegrees=yes

Units are S.I. units (second, meters, Newtons, ...)
Angles are in degrees.

endheader
time	pelvis_tilt	pelvis_list	pelvis_rotation	pelvis_tx	pelvis_ty	pelvis_tz	hip_flexion_r	hip_adduction_r	hip_rotation_r	knee_angle_r	knee_angle_r_beta	ankle_angle_r	subtalar_angle_r	mtp_angle_r	hip_flexion_l	hip_adduction_l	hip_rotation_l	knee_angle_l	knee_angle_l_beta	ankle_angle_l	subtalar_angle_l	mtp_angle_l	lumbar_extension	lumbar_bending	lumbar_rotation	arm_flex_r	arm_add_r	arm_rot_r	elbow_flex_r	pro_sup_r	wrist_flex_r	wrist_dev_r	arm_flex_l	arm_add_l	arm_rot_l	elbow_flex_l	pro_sup_l	wrist_flex_l	wrist_dev_l
     22.42750000	     -9.09428440	     -2.02332049	      1.09687928	      1.00663470	      0.91437004	      0.51963582	     26.83414208	     -0.01105764	     -6.82702021	     27.90471858	     27.90471858	     11.87426282	     -6.52992734	     -1.24982756	     11.94658826	     -6.80623351	     -2.83334094	     23.95753985	     23.95753985	     19.22642388	    -11.31247062	      4.21061091	     -9.91460082	      2.77971389	      2.34601768	    -10.98131198	    -16.66782135	     -0.44656817	     37.57220661	     44.99286420	      0.00000000	      0.00000000	     36.37759946	    -18.86132062	     -2.71867427	     72.14358092	     47.66215846	      0.00000000	      0.00000000
     22.45314286	     -9.05722676	     -2.07437352	      1.59608261	      1.00654086	      0.91463245	      0.52609929	     26.39375432	      0.32522975	     -7.38304986	     27.88657040	     27.88657040	     12.60286364	     -6.40403222	     -0.45717748	     12.54136321	     -7.43890485	     -2.68127641	     25.59591165	     25.59591165	     18.62197910	    -11.23593842	      3.16584977	     -9.87977723	      2.68565924	      2.09607105	     -8.33325161	    -16.86506763	      0.05865959	     35.84592952	     45.10836467	      0.00000000	      0.00000000	     34.33945096	    -18.70148374	     -2.00605768	     70.70252929	     47.57200668	      0.00000000	      0.00000000
     22.47878571	     -8.95968157	     -2.17741025	      2.08389151	      1.00626521	      0.91486905	      0.53220205	     25.85193978	      0.69190612	     -7.98680093	     27.74413000	     27.74413000	     13.03472346	     -6.23091423	     -0.52640902	     13.54748352	     -8.04618137	     -2.14001634	     28.13712718	     28.13712718	     18.06284348	    -11.86428510	      2.67697097	     -9.97085450	      2.72581374	      2.13486724	     -6.39910891	    -17.18492933	     -0.04460381	     36.31801223	     45.11741717	      0.00000000	      0.00000000	     32.14298073	    -18.19943299	     -1.51240682	     69.28349227	     47.49874234	      0.00000000	      0.00000000
     22.50442857	     -8.82247883	     -2.28041078	      2.52527034	      1.00590275	      0.91499411	      0.53802273	     25.31145994	      1.04104318	     -8.61085900	     27.66734302	     27.66734302	     13.48831314	     -5.95941671	     -0.61508545	     14.85813740	     -8.63698453	     -1.54888899	     31.35163913	     31.35163913	     17.36175475	    -12.80747988	      2.06533992	    -10.02038720	      2.76185355	      2.11692513	     -4.06973788	    -17.41366203	     -0.09243472	     36.63777995	     45.13277500	      0.00000000	      0.00000000	     29.71724201	    -17.77089041	     -0.94751086	     67.34002569	     47.41054288	      0.00000000	      0.00000000
     22.53007143	     -8.63009179	     -2.38667433	      2.89769173	      1.00554559	      0.91498961	      0.54352942	     24.74718778	      1.39292420	     -9.19562772	     27.65072827	     27.65072827	     13.96803720	     -5.61684389	     -0.71170129	     16.35919648	     -9.17845669	     -0.84334258	     35.05979729	     35.05979729	     16.52552423	    -14.13599264	      1.55064397	    -10.05124090	      2.77642005	      2.07112559	     -1.41688985	    -17.52736368	     -0.06363568	     36.74593007	     45.15544904	      0.00000000	      0.00000000	     27.09102333	    -17.32894589	     -0.32719139	     64.89863828	     47.30951285	      0.00000000	      0.00000000
     22.55571429	     -8.34245354	     -2.48640951	      3.20660412	      1.00529972	      0.91485647	      0.54867242	     24.14610847	      1.73267272	     -9.70059330	     27.78470744	     27.78470744	     14.60187208	     -5.23429674	     -0.82588499	     17.88468406	     -9.66735056	     -0.10567197	     39.01707877	     39.01707877	     15.60206743	    -15.75597331	      1.50898744	    -10.07782119	      2.86771437	      1.97221805	      1.74381631	    -17.49140454	      0.11642261	     36.37785704	     45.19615428	      0.00000000	      0.00000000	     24.38578247	    -16.95991816	      0.30609133	     61.69310369	     47.19683701	      0.00000000	      0.00000000
     22.58135714	     -7.89154442	     -2.60694471	      3.45077105	      1.00514992	      0.91468807	      0.55353035	     23.43978553	      2.10352487	    -10.16364496	     28.05837314	     28.05837314	     15.31206232	     -4.88235949	     -0.64401921	     19.33885072	    -10.15844438	      0.63930194	     43.17298823	     43.17298823	     15.44532713	    -17.05013586	      3.50398456	    -10.18007016	      2.94340887	      2.03894678	      5.75002904	    -17.26356410	      0.88393625	     33.77688803	     45.32201853	      0.00000000	      0.00000000	     22.03429422	    -16.26517670	      0.86875111	     57.17692168	     47.08230710	      0.00000000	      0.00000000
